<svg width="32" height="32" viewBox="0 0 32 32" fill="none" xmlns="http://www.w3.org/2000/svg">
<circle cx="16" cy="16" r="16" fill="#1FCE1B"/>
<path d="M22.8 11.7C20.4 8 15.5 6.9 11.7 9.2C8.00002 11.5 6.80002 16.5 9.20002 20.2L9.40002 20.5L8.60002 23.5L11.6 22.7L11.9 22.9C13.2 23.6 14.6 24 16 24C17.5 24 19 23.6 20.3 22.8C24 20.4 25.1 15.5 22.8 11.7ZM20.7 19.4C20.3 20 19.8 20.4 19.1 20.5C18.7 20.5 18.2 20.7 16.2 19.9C14.5 19.1 13.1 17.8 12.1 16.3C11.5 15.6 11.2 14.7 11.1 13.8C11.1 13 11.4 12.3 11.9 11.8C12.1 11.6 12.3 11.5 12.5 11.5H13C13.2 11.5 13.4 11.5 13.5 11.9C13.7 12.4 14.2 13.6 14.2 13.7C14.3 13.8 14.3 14 14.2 14.1C14.3 14.3 14.2 14.5 14.1 14.6C14 14.7 13.9 14.9 13.8 15C13.6 15.1 13.5 15.3 13.6 15.5C14 16.1 14.5 16.7 15 17.2C15.6 17.7 16.2 18.1 16.9 18.4C17.1 18.5 17.3 18.5 17.4 18.3C17.5 18.1 18 17.6 18.2 17.4C18.4 17.2 18.5 17.2 18.7 17.3L20.3 18.1C20.5 18.2 20.7 18.3 20.8 18.4C20.9 18.7 20.9 19.1 20.7 19.4Z" fill="white"/>
</svg>
